# AST/ASF file generated using VICON BodyLanguage
# -----------------------------------------------
:version 1.10
:name VICON
:units
  mass 1.0
  length 0.45
  angle deg
:documentation
   .ast/.asf automatically generated from VICON data using
   VICON BodyBuilder and BodyLanguage model FoxedUp or BRILLIANT.MOD
:root
   order TX TY TZ RX RY RZ
   axis XYZ
   position 0 0 0  
   orientation 0 0 0 
:bonedata
  begin
     id 1 
     name lhipjoint
     direction 0.714689 -0.624256 0.315473 
     length 2.45343 
     axis 0 0 0  XYZ
  end
  begin
     id 2 
     name lfemur
     direction 0.34202 -0.939693 0  
     length 6.59069  
     axis 0 0 20  XYZ
    dof rx ry rz
    limits (-160.0 20.0)
           (-70.0 70.0)
           (-60.0 70.0)
  end
  begin
     id 3 
     name ltibia
     direction 0.34202 -0.939693 0   
     length 6.73476   
     axis 0 0 20   XYZ
    dof rx
    limits (-10.0 170.0)
  end
  begin
     id 4 
     name lfoot
     direction 0.0718085 -0.197292 0.977711   
     length 1.52607   
     axis -90 7.62852e-016 20   XYZ
    dof rx rz
    limits (-45.0 90.0)
           (-70.0 20.0)
  end
  begin
     id 5 
     name ltoes
     direction 1.53553e-011 -4.22024e-011 1   
     length 0.777832   
     axis -90 7.62852e-016 20   XYZ
    dof rx
    limits (-90.0 20.0)
  end
  begin
     id 6 
     name rhipjoint
     direction -0.727419 -0.612432 0.309497   
     length 2.50079  
     axis 0 0 0  XYZ 
  end
  begin
     id 7 
     name rfemur
     direction -0.34202 -0.939693 0   
     length 6.51665   
     axis 0 0 -20   XYZ
    dof rx ry rz
    limits (-160.0 20.0)
           (-70.0 70.0)
           (-70.0 60.0)
  end
  begin
     id 8 
     name rtibia
     direction -0.34202 -0.939693 0   
     length 6.48919   
     axis 0 0 -20   XYZ
    dof rx
    limits (-10.0 170.0)
 end
 begin
     id 9 
     name rfoot
     direction -0.112205 -0.308282 0.944655   
     length 1.68717  
     axis -90 -7.62852e-016 -20   XYZ
    dof rx rz
    limits (-45.0 90.0)
           (-20.0 70.0)
  end
  begin
     id 10 
     name rtoes
     direction -1.53583e-011 -4.21993e-011 1   
     length 0.846859   
     axis -90 -7.62852e-016 -20   XYZ
    dof rx
    limits (-90.0 20.0)
  end
  begin
     id 11 
     name lowerback
     direction -0.00119603 0.996364 -0.0851956   
     length 1.67242   
     axis 0 0 0   XYZ
    dof rx ry rz
    limits (-20.0 45.0)
           (-30.0 30.0)
           (-30.0 30.0)
  end
  begin
     id 12 
     name upperback
     direction -0.00531001 0.998318 0.0577248   
     length 1.64819   
     axis 0 0 0   XYZ
    dof rx ry rz
    limits (-20.0 45.0)
           (-30.0 30.0)
           (-30.0 30.0)
  end
  begin
     id 13 
     name thorax
     direction -0.00653676 0.995132 0.0983291   
     length 1.67429   
     axis 0 0 0   XYZ
    dof rx ry rz
    limits (-20.0 45.0)
           (-30.0 30.0)
           (-30.0 30.0)
  end
  begin
     id 14 
     name lowerneck
     direction 0.0141424 0.999886 0.00525412   
     length 1.59623   
     axis 0 0 0   XYZ
    dof rx ry rz
    limits (-20.0 45.0)
           (-30.0 30.0)
           (-30.0 30.0)
  end
  begin
     id 15 
     name upperneck
     direction -0.0640064 0.987178 -0.146232   
     length 1.59576   
     axis 0 0 0   XYZ
    dof rx ry rz
    limits (-20.0 45.0)
           (-30.0 30.0)
           (-30.0 30.0)
  end
  begin
     id 16
     name head
     direction -0.0222942 0.998496 -0.0500859  
     length 1.60959  
     axis 0 0 0   XYZ
    dof rx ry rz
    limits (-20.0 45.0)
           (-30.0 30.0)
           (-30.0 30.0)
  end
  begin
     id 17 
     name lclavicle
     direction 0.908549 0.392612 0.142806  
     length 2.80649  
     axis 0 0 0   XYZ
    dof ry rz
    limits (-20.0 10.0)
           (0.0 20.0)
  end
  begin
     id 18 
     name lhumerus
     direction 1 -4.48968e-011 1.08832e-028   
     length 4.2884   
     axis -180 -30 -90   XYZ
    dof rx ry rz
    limits (-60.0 90.0)
           (-90.0 90.0)
           (-90.0 90.0)
  end
  begin
     id 19
     name lradius
     direction 1 -4.48952e-011 -3.02642e-028   
     length 3.06552   
     axis -180 -30 -90   XYZ
    dof rx
    limits (-10.0 170.0)
  end
  begin
     id 20
     name lwrist
     direction 1 -4.49014e-011 1.58672e-027   
     length 1.53276   
     axis -1.65735e-015 90 90   XYZ
    dof ry
    limits (-180.0 0.0)
 end
  begin
     id 21 
     name lhand
     direction 1 -4.48928e-011 3.17344e-027   
     length 0.753045   
     axis -2.02492e-015 90 90   XYZ
    dof rx rz
    limits (-90.0 90.0)
           (-45.0 45.0)
  end
  begin
     id 22 
     name lfingers
     direction 1 -4.48958e-011 6.34687e-027   
     length 0.607124   
     axis -4.04985e-015 90 90   XYZ
    dof rx
    limits (0.0 90.0)
  end
  begin
     id 23
     name lthumb
     direction 0.707107 -6.34905e-011 0.707107   
     length 0.871712   
     axis -90 45 2.85299e-015   XYZ
    dof rx rz
    limits (-45.0 45.0)
           (-45.0 45.0)
  end
  begin
     id 24 
     name rclavicle
     direction -0.885098 0.45949 0.0739604   
     length 2.9478  
     axis 0 0 0   XYZ 
    dof ry rz
    limits (-10.0 20.0)
           (-20.0 0.0)
  end
  begin
     id 25 
     name rhumerus
     direction -1 -4.4898e-011 -2.61739e-027  
     length 4.52172   
     axis -180 30 90   XYZ
    dof rx ry rz
    limits (-90.0 60.0)
           (-90.0 90.0)
           (-90.0 90.0)
  end
  begin
     id 26 
     name rradius
     direction -1 -4.48945e-011 9.02552e-028   
     length 2.8914   
     axis -180 30 90   XYZ
    dof rx
    limits (-10.0 170.0)
  end
  begin
     id 27 
     name rwrist
     direction -1 -4.49018e-011 1.58672e-027   
     length 1.4457   
     axis -1.65735e-015 -90 -90   XYZ
    dof ry
    limits (-180.0 0.0)
  end
  begin
     id 28
     name rhand
     direction -1 -4.48825e-011 3.17344e-027   
     length 0.680541   
     axis -2.02492e-015 -90 -90   XYZ
    dof rx rz
    limits (-90.0 90.0)
           (-45.0 45.0)
  end
  begin
     id 29
     name rfingers
     direction -1 -4.49067e-011 6.34687e-027   
     length 0.54867   
     axis -4.04985e-015 -90 -90   XYZ
    dof rx
    limits (0.0 90.0)
  end
  begin
     id 30
     name rthumb
     direction -0.707107 -6.34833e-011 0.707107   
     length 0.787783   
     axis -90 -45 -2.85299e-015   XYZ
    dof rx rz
    limits (-45.0 45.0)
           (-45.0 45.0)
  end
:hierarchy
  begin
    root lhipjoint rhipjoint lowerback
    lhipjoint lfemur
    lfemur ltibia
    ltibia lfoot
    lfoot ltoes
    rhipjoint rfemur
    rfemur rtibia
    rtibia rfoot
    rfoot rtoes
    lowerback upperback
    upperback thorax
    thorax lowerneck lclavicle rclavicle
    lowerneck upperneck
    upperneck head
    lclavicle lhumerus
    lhumerus lradius
    lradius lwrist
    lwrist lhand lthumb
    lhand lfingers
    rclavicle rhumerus
    rhumerus rradius
    rradius rwrist
    rwrist rhand rthumb
    rhand rfingers
  end

#!OML:ASF E:\emotionWalksFemale\Project 1\Capture day 1\Session 1\Female1.ASF
:FULLY-SPECIFIED
:DEGREES
484
root 8.3031 15.4075 35.4774 183.089 -3.30133 182.127
lowerback 5.28601 -0.0838615 0.384296
upperback -5.68913 -0.265706 0.179586
thorax -8.97135 -0.233606 0.0224559
lowerneck -4.52051 -2.14454 -4.17977
upperneck 6.24065 -3.01549 5.16749
head 2.97721 -1.46255 2.31097
rclavicle 3.70236e-015 3.18055e-015
rhumerus -45.5169 10.8044 -93.2729
rradius 35.3755
rwrist 16.5267
rhand -3.58823 -51.6641
rfingers 7.12502
rthumb 22.1493 -80.4152
lclavicle 3.70236e-015 3.18055e-015
lhumerus -48.3882 -4.84808 89.3031
lradius 38.4402
lwrist -12.4425
lhand -5.09282 -34.1317
lfingers 7.12502
lthumb 20.7042 -5.2161
rfemur -13.3501 17.6085 28.1365
rtibia 16.9083
rfoot -12.3194 -33.8333
rtoes 30.3027
lfemur 4.67147 0.107044 -19.526
ltibia 39.0465
lfoot 7.34158 -1.69702
ltoes -17.5075
485
root 8.32221 15.4008 35.3813 182.579 -3.63213 181.894
lowerback 5.54166 -0.136204 0.0613561
upperback -5.50444 -0.351314 0.102299
thorax -8.91988 -0.248106 0.132109
lowerneck -4.48835 -2.24709 -4.22464
upperneck 6.20529 -3.14862 5.16506
head 2.9674 -1.52998 2.31257
rclavicle 6.06293e-015 1.78906e-015
rhumerus -45.3139 10.66 -93.1061
rradius 35.2736
rwrist 16.6553
rhand -1.80634 -52.6044
rfingers 7.12502
rthumb 23.8591 -81.1426
lclavicle 6.06293e-015 1.78906e-015
lhumerus -48.1926 -4.63221 89.1534
lradius 38.5298
lwrist -12.1668
lhand -5.30848 -34.4074
lfingers 7.12502
lthumb 20.497 -5.46941
rfemur -12.1719 17.1252 28.3361
rtibia 16.6464
rfoot -12.4125 -33.6957
rtoes 30.715
lfemur 4.46673 0.500837 -19.2929
ltibia 40.695
lfoot 8.26504 -2.33491
ltoes -17.6092
486
root 8.33679 15.404 35.2949 182.656 -3.76463 181.915
lowerback 5.38382 -0.16863 0.141122
upperback -5.50758 -0.392813 0.0705836
thorax -8.83062 -0.275945 0.0583752
lowerneck -4.32653 -2.27037 -4.32795
upperneck 6.03852 -3.1753 5.23783
head 2.88645 -1.5453 2.3546
rclavicle 1.38901e-014 -2.18663e-015
rhumerus -45.0894 10.5996 -93.003
rradius 35.1459
rwrist 16.9024
rhand -0.561506 -53.1256
rfingers 7.12502
rthumb 25.0524 -81.5025
lclavicle 1.38901e-014 -2.18663e-015
lhumerus -48.0406 -4.23683 88.9278
lradius 38.7221
lwrist -12.1316
lhand -5.42486 -34.3862
lfingers 7.12502
lthumb 20.3852 -5.43616
rfemur -11.5628 16.6714 28.5487
rtibia 15.9261
rfoot -12.4212 -33.4351
rtoes 31.2113
lfemur 3.36921 0.85442 -18.9287
ltibia 42.6928
lfoot 9.15124 -2.55043
ltoes -16.0271
487
root 8.35462 15.4065 35.2094 182.622 -3.81188 182.037
lowerback 5.31409 -0.200401 0.27495
upperback -5.46714 -0.4231 0.041934
thorax -8.74647 -0.299379 -0.0439464
lowerneck -4.2397 -2.26343 -4.23737
upperneck 5.8618 -3.16141 5.18438
head 2.80559 -1.53815 2.31952
rclavicle -1.30949e-014 -5.96354e-015
rhumerus -44.8682 10.619 -93.0637
rradius 34.9895
rwrist 17.0901
rhand -0.672777 -53.362
rfingers 7.12502
rthumb 24.9458 -81.7538
lclavicle -1.30949e-014 -5.96354e-015
lhumerus -47.821 -3.76527 88.4691
lradius 39.0909
lwrist -11.4625
lhand -3.73929 -33.8625
lfingers 7.12502
lthumb 22.0043 -5.09423
rfemur -10.9204 16.385 28.9208
rtibia 15.3775
rfoot -12.3035 -33.4653
rtoes 30.8882
lfemur 2.40519 1.11108 -18.5248
ltibia 44.6657
lfoot 10.2137 -2.40493
ltoes -12.2701
488
root 8.37476 15.4079 35.1386 182.668 -3.74508 182.52
lowerback 5.40448 -0.163695 0.644169
upperback -5.51858 -0.333849 0.137911
thorax -8.85716 -0.277374 -0.159988
lowerneck -4.31465 -2.28108 -3.96803
upperneck 5.84285 -3.18571 5.00098
head 2.80226 -1.54788 2.20672
rclavicle 3.45388e-015 1.19271e-015
rhumerus -44.6461 10.6279 -93.0929
rradius 34.7815
rwrist 17.3012
rhand -0.938033 -53.6488
rfingers 7.12502
rthumb 24.6916 -82.0756
lclavicle 3.45388e-015 1.19271e-015
lhumerus -47.7427 -3.58642 88.2797
lradius 39.156
lwrist -12.0217
lhand -5.2996 -33.849
lfingers 7.12502
lthumb 20.5055 -4.91189
rfemur -10.3592 16.1692 29.6362
rtibia 14.5405
rfoot -11.3719 -33.3557
rtoes 29.8889
lfemur 1.09852 1.78118 -17.6323
ltibia 46.7832
lfoot 11.4175 -2.5798
ltoes -10.0459
489
root 8.40161 15.4043 35.0772 182.807 -3.77343 183.109
lowerback 5.55245 -0.151768 0.975277
upperback -5.63188 -0.276252 0.343489
thorax -9.0689 -0.267592 -0.133447
lowerneck -4.28356 -2.24798 -4.04351
upperneck 5.81029 -3.14984 5.1699
head 2.79031 -1.52816 2.27888
rclavicle -2.5842e-015 -2.78299e-015
rhumerus -44.478 10.778 -93.0592
rradius 34.601
rwrist 17.3478
rhand -1.20034 -53.5476
rfingers 7.12502
rthumb 24.4402 -82.0085
lclavicle -2.5842e-015 -2.78299e-015
lhumerus -47.6068 -3.36876 88.2177
lradius 39.3627
lwrist -11.8415
lhand -5.80663 -33.8326
lfingers 7.12502
lthumb 20.0182 -4.84375
rfemur -9.96905 16.0476 30.44
rtibia 13.7551
rfoot -10.5361 -33.3175
rtoes 28.757
lfemur -0.47675 2.62784 -16.5442
ltibia 48.9033
lfoot 12.6708 -3.34442
ltoes -13.2052
490
root 8.41749 15.4086 34.9952 182.84 -4.10308 183.231
lowerback 5.45251 -0.247261 1.13888
upperback -5.60005 -0.388553 0.358204
thorax -8.97733 -0.331727 -0.195777
lowerneck -4.29681 -2.24229 -4.17146
upperneck 5.79953 -3.13906 5.26732
head 2.7947 -1.52253 2.33569
rclavicle 1.14301e-014 -2.38542e-015
rhumerus -44.1708 10.8848 -93.0163
rradius 34.3259
rwrist 17.4786
rhand -1.51528 -52.8694
rfingers 7.12502
rthumb 24.1382 -81.3707
lclavicle 1.14301e-014 -2.38542e-015
lhumerus -47.2229 -3.08296 88.1099
lradius 39.4164
lwrist -11.5053
lhand -5.47229 -34.0671
lfingers 7.12502
lthumb 20.3396 -5.11222
rfemur -9.32641 15.7704 30.7826
rtibia 13.1166
rfoot -10.6504 -33.3515
rtoes 28.2486
lfemur -1.76227 2.88148 -16.1402
ltibia 50.8769
lfoot 13.7875 -3.66468
ltoes -16.1017
